Coordinates
version=1
nRows=11
nColumns=36
inDegrees=yes

Units are S.I. units (second, meters, Newtons, ...)
If the header above contains a line with 'inDegrees', this indicates whether rotational values are in degrees (yes) or radians (no).

endheader
time	pelvis_tilt	pelvis_list	pelvis_rotation	pelvis_tx	pelvis_ty	pelvis_tz	hip_flexion_r	hip_adduction_r	hip_rotation_r	knee_angle_r	knee_angle_r_beta	ankle_angle_r	subtalar_angle_r	mtp_angle_r	hip_flexion_l	hip_adduction_l	hip_rotation_l	knee_angle_l	knee_angle_l_beta	ankle_angle_l	subtalar_angle_l	mtp_angle_l	lumbar_extension	lumbar_bending	lumbar_rotation	arm_flex_r	arm_add_r	arm_rot_r	elbow_flex_r	pro_sup_r	arm_flex_l	arm_add_l	arm_rot_l	elbow_flex_l	pro_sup_l
      1.43000000	     -9.69792535	      1.51137093	     -6.28836842	     -0.33396261	      0.70476711	     -0.61178125	     71.42299480	     -8.20567839	      8.82207789	     86.82935926	      1.51545821	     29.70846778	     -2.10501610	     -7.40436783	     65.74686929	     -9.44887664	      6.07120605	     89.78941845	      1.56712099	     31.49619270	    -10.39217237	     -7.40436783	    -30.35702352	      5.44588183	      9.73938919	     47.95821315	     -1.66777816	     -6.41099486	     77.72274890	    100.02774098	     24.89261412	    -14.39511002	      3.25225215	     91.82057169	    110.12286016
      1.44000000	    -10.53114114	      1.09970451	     -5.90547108	     -0.33280059	      0.69746731	     -0.61258751	     72.95057857	     -8.32635040	      8.46913917	     88.14034660	      1.53833925	     29.87658930	     -1.84827577	     -7.40548613	     67.54173482	     -9.45428911	      6.85207302	     91.12638549	      1.59045546	     31.96634410	    -10.05885556	     -7.40548613	    -31.49789224	      5.78062077	      9.99835390	     51.52169350	     -1.71147785	     -5.25087468	     77.55738797	    100.23888740	     28.08608760	    -14.65720159	      4.73771489	     90.95346080	    110.10527910
      1.45000000	    -11.24854419	      0.65839937	     -5.51202436	     -0.33137209	      0.69123405	     -0.61334116	     74.23074755	     -8.50680140	      8.08106364	     89.32400579	      1.55899800	     30.00116695	     -1.55999682	     -7.40672949	     69.16990146	     -9.51155674	      7.58108591	     92.36811701	      1.61212777	     32.31556182	     -9.47377110	     -7.40672949	    -32.60473009	      6.09938294	     10.28150736	     54.91769093	     -1.93663604	     -3.98902612	     77.28067644	    100.46860738	     31.33900453	    -14.52584305	      5.87141918	     89.69939086	    109.99717317
      1.46000000	    -11.94565317	      0.25896535	     -5.21765703	     -0.32978386	      0.68575748	     -0.61365658	     75.40990412	     -8.65336458	      7.67160020	     90.37188716	      1.57728698	     30.07502210	     -1.30329146	     -7.40799741	     70.74169521	     -9.68641800	      8.20617698	     93.54679789	      1.63269963	     32.45472890	     -8.76967840	     -7.40799741	    -33.60294465	      6.26454178	     10.60480918	     58.07321475	     -2.09614791	     -2.92311194	     77.03829065	    100.68186190	     34.41738266	    -14.09587247	      6.49390162	     88.40155773	    109.85356015
      1.47000000	    -12.68157962	     -0.15676081	     -4.99350350	     -0.32816931	      0.68082801	     -0.61325426	     76.49018814	     -8.60663383	      7.27504349	     91.26735364	      1.59291582	     30.14761070	     -1.19975721	     -7.40975803	     72.38262518	    -10.11185257	      8.69379775	     94.65628749	      1.65206387	     32.44994223	     -7.93095497	     -7.40975803	    -34.44434813	      6.31766854	     10.96403906	     60.91311617	     -2.20673880	     -2.10062737	     76.92309036	    100.91166113	     37.27253112	    -13.62154311	      6.94799606	     87.32182272	    109.72942303
      1.48000000	    -13.55973335	     -0.52932593	     -4.75231606	     -0.32649772	      0.67603082	     -0.61260489	     77.65380214	     -8.54279961	      6.87956618	     92.06714310	      1.60687478	     30.21705048	     -1.29475356	     -7.41113014	     74.22041669	    -10.52398387	      9.13443601	     95.71726347	      1.67058140	     32.00813552	     -7.22521365	     -7.41113014	    -34.98181980	      6.29484658	     11.14830256	     63.46705354	     -2.15078561	     -1.47424711	     76.88450158	    101.03103450	     39.65946618	    -13.31897455	      7.21508094	     86.82407518	    109.68555810
      1.49000000	    -14.63861642	     -0.89180294	     -4.35806223	     -0.32453781	      0.67105707	     -0.61226426	     78.94200995	     -8.68473397	      6.44329966	     92.82412754	      1.62008665	     30.41218040	     -1.43794597	     -7.41228779	     76.34193779	    -10.80173983	      9.58802779	     96.75808459	      1.68874715	     31.35594844	     -6.54039860	     -7.41228779	    -35.11333452	      6.36786954	     11.16506886	     65.64951378	     -2.17833796	     -0.92300872	     77.11271255	    101.10985392	     41.68749480	    -13.00172990	      7.30228688	     86.69413535	    109.69882911
      1.50000000	    -15.71304580	     -1.18194836	     -3.84570974	     -0.32227928	      0.66629502	     -0.61222835	     80.19506244	     -9.16629881	      5.94900606	     93.56270214	      1.63297721	     30.68687945	     -1.47758006	     -7.41308113	     78.42298770	    -10.92528541	      9.91170574	     97.73629318	      1.70582011	     30.69919472	     -5.96756664	     -7.41308113	    -35.09438606	      6.41450559	     10.99648048	     67.53212080	     -2.26450818	     -0.42890085	     77.57430177	    101.17548167	     43.49025883	    -12.59394486	      7.21135508	     86.89985123	    109.75232704
      1.51000000	    -16.70633509	     -1.49059407	     -3.38158239	     -0.31997323	      0.66220099	     -0.61211156	     81.21781783	     -9.66263898	      5.44600152	     94.10510099	      1.64244386	     31.11090131	     -1.31395602	     -7.41407798	     80.23983305	    -11.09542931	     10.15168837	     98.49970070	      1.71914409	     30.16510530	     -5.46522745	     -7.41407798	    -35.12512997	      6.47910920	     10.79544278	     69.32031269	     -2.40884428	      0.21816292	     78.33721329	    101.25852370	     45.21789265	    -12.41593713	      7.13392069	     87.35680150	    109.88419958
      1.52000000	    -17.46297869	     -1.71175262	     -2.92925573	     -0.31753478	      0.65878907	     -0.61200083	     81.94160138	    -10.18373404	      5.07390686	     94.59007916	      1.65090832	     31.64219634	     -1.17607874	     -7.41484709	     81.51318568	    -11.20264713	     10.18950757	     99.04720464	      1.72869984	     30.10429795	     -5.20693727	     -7.41484709	    -35.31169498	      6.40940315	     10.48929696	     71.01752448	     -2.63769191	      0.81909323	     79.21895777	    101.33375541	     46.97246229	    -12.66747154	      7.33964541	     88.18970814	    110.09088680
      1.53000000	    -18.07959756	     -1.90961028	     -2.57721392	     -0.31487745	      0.65588375	     -0.61168990	     82.45380443	    -10.52304161	      4.80886440	     95.01945780	      1.65840239	     32.43395877	     -0.81405293	     -7.41640712	     82.33121501	    -11.39801776	     10.11039646	     99.39691671	      1.73480346	     30.66238507	     -4.87589349	     -7.41640712	    -35.52895514	      6.21661043	     10.16570087	     72.54157039	     -2.99906696	      1.52703585	     80.36130588	    101.35910080	     48.76894871	    -13.45845829	      7.92354117	     89.27056284	    110.51453329
